<?xml version="1.0" encoding="utf-8"?>
<!-- Generator: Adobe Illustrator 23.0.2, SVG Export Plug-In . SVG Version: 6.00 Build 0)  -->
<svg version="1.1" id="Calque_1" focusable="false" xmlns="http://www.w3.org/2000/svg" xmlns:xlink="http://www.w3.org/1999/xlink"
	 x="0px" y="0px" viewBox="0 0 512 512" style="enable-background:new 0 0 512 512;" xml:space="preserve">
<style type="text/css">
	.st0{fill:#323031;}
</style>
<path class="st0" d="M491.2,0.7C452.5,12.3,379.4,35,303.5,62c-2.1-7-4-13.5-5.6-18.6c-3-9.7-13.9-14.2-22.9-9.5
	C232.6,56,122.2,116.5,60.6,176.4c-1.1,1-2.5,2-3.5,3C19,217.4,0,267.3,0,317.2C0,367,19,416.9,57,455c38,38,87.9,57.1,137.8,57
	c49.9,0,99.8-19,137.9-57.1c1-1,2-2.4,3-3.5c59.8-61.6,120.4-172.1,142.5-214.4c4.7-9,0.2-19.9-9.5-22.9c-5.2-1.6-11.6-3.5-18.6-5.6
	c27-76,49.7-149,61.3-187.7C515,8.4,503.6-3,491.2,0.7z M192,448c-70.7,0-128-57.3-128-128s57.3-128,128-128s128,57.3,128,128
	S262.7,448,192,448z M160,256c-17.7,0-32,14.3-32,32s14.3,32,32,32s32-14.3,32-32S177.7,256,160,256z M208,352c-8.8,0-16,7.2-16,16
	s7.2,16,16,16s16-7.2,16-16S216.8,352,208,352z"/>
</svg>
