<?xml version="1.0" encoding="utf-8"?>
<!-- Generator: Adobe Illustrator 23.0.2, SVG Export Plug-In . SVG Version: 6.00 Build 0)  -->
<svg version="1.1" id="Calque_1" xmlns="http://www.w3.org/2000/svg" xmlns:xlink="http://www.w3.org/1999/xlink" x="0px" y="0px"
	 viewBox="0 0 300 300" style="enable-background:new 0 0 300 300;" xml:space="preserve">
<style type="text/css">
	.st0{fill:#323031;}
</style>
<g>
	<path class="st0" d="M0,0l136.05,136.05c0.93-0.4,1.91-1.14,2.41-1.63c1.3-1.3,5.57-5.67,10.12-10.27
		c-18.54-11.92-11.98-24.9-11.98-24.9c3.84-8.82,1.93-14.09,1.93-14.09c-1.57-8.36,3.7-2.95,3.7-2.95
		c5.11,5.88,2.75,14.03,2.75,14.03c-3.49,13.25,6.86,18.75,11.38,20.48c4.03-3.05,7.86-4.04,10.79-3.84
		c-10.77-13.54-18.86-31.02,2.11-51.99c5.98-5.98,13-8.72,20.33-9.05c0.81-1.95,4.5-9.39,15.02-13.96c0,0,6.07,3.13,9.44,20.67
		c5.58,3.15,10.87,7.23,15.54,11.86c4.63,4.67,8.71,9.97,11.87,15.56c17.53,3.37,20.65,9.43,20.65,9.43
		c-4.56,10.52-12,14.21-13.95,15.02c-0.32,7.34-3.08,14.35-9.06,20.33c-21.02,21.02-38.46,12.85-52,2.01
		c0.26,3.66-1.32,8.74-6.42,13.85c-7.32,7.32-13.28,13.16-15.08,14.96c-0.5,0.5-1.24,1.48-1.64,2.4L300,300l0-300H0z"/>
	<path class="st0" d="M142.69,86.44c-0.4,0.14-0.55,0.74-0.33,1.31c0.2,0.58,0.71,0.92,1.11,0.77c0.41-0.14,0.56-0.74,0.34-1.31
		C143.6,86.62,143.09,86.27,142.69,86.44z"/>
	<path class="st0" d="M143.33,90.54c-0.51-0.02-0.95,0.56-0.98,1.3c-0.04,0.73,0.36,1.35,0.86,1.37c0.52,0.03,0.95-0.55,0.98-1.29
		C144.22,91.18,143.84,90.57,143.33,90.54z"/>
	<path class="st0" d="M141.47,96.83c-0.15,0.83,0.18,1.59,0.75,1.7c0.58,0.1,1.16-0.48,1.33-1.31c0.14-0.83-0.19-1.58-0.76-1.68
		C142.2,95.42,141.62,96,141.47,96.83z"/>
	<path class="st0" d="M140.93,102.91c0.02,0.92,0.57,1.65,1.2,1.62c0.65-0.01,1.13-0.78,1.1-1.7c-0.02-0.92-0.57-1.65-1.21-1.63
		C141.39,101.23,140.89,101.99,140.93,102.91z"/>
	<path class="st0" d="M144.44,110.37c0.56-0.31,0.66-1.21,0.23-2.02c-0.43-0.82-1.25-1.23-1.81-0.93c-0.56,0.31-0.66,1.21-0.22,2.02
		C143.07,110.25,143.88,110.67,144.44,110.37z"/>
	<path class="st0" d="M146.2,112.86c-0.44,0.45-0.27,1.35,0.4,1.99c0.66,0.64,1.56,0.79,2,0.33c0.45-0.45,0.28-1.34-0.39-1.98
		C147.54,112.55,146.66,112.41,146.2,112.86z"/>
	<path class="st0" d="M152.76,116.73c-0.75-0.52-1.66-0.53-2.04,0c-0.36,0.52-0.04,1.38,0.71,1.9c0.77,0.53,1.67,0.53,2.03,0.01
		C153.84,118.11,153.52,117.26,152.76,116.73z"/>
</g>
</svg>
