<?xml version="1.0" encoding="utf-8"?>
<!-- Generator: Adobe Illustrator 23.0.2, SVG Export Plug-In . SVG Version: 6.00 Build 0)  -->
<svg version="1.1" id="Calque_1" xmlns="http://www.w3.org/2000/svg" xmlns:xlink="http://www.w3.org/1999/xlink" x="0px" y="0px"
	 viewBox="0 0 300 300" style="enable-background:new 0 0 300 300;" xml:space="preserve">
<style type="text/css">
	.st0{fill:#FFC857;}
	.st1{fill:#323031;}
</style>
<g>
	<rect x="-3" y="-2.62" class="st0" width="306.25" height="306.25"/>
</g>
<path class="st1" d="M175.86,117.75h-51.47c-3.87,0-7.02,3.14-7.02,7.02v51.47c0,3.87,3.14,7.02,7.02,7.02h51.47
	c3.87,0,7.02-3.14,7.02-7.02v-51.47C182.88,120.89,179.73,117.75,175.86,117.75z M171.18,154.59c0,0.97-0.79,1.75-1.75,1.75h-13.45
	v13.45c0,0.97-0.79,1.75-1.75,1.75h-8.19c-0.97,0-1.75-0.79-1.75-1.75v-13.45h-13.45c-0.97,0-1.75-0.79-1.75-1.75v-8.19
	c0-0.97,0.79-1.75,1.75-1.75h13.45V131.2c0-0.97,0.79-1.75,1.75-1.75h8.19c0.97,0,1.75,0.79,1.75,1.75v13.45h13.45
	c0.97,0,1.75,0.79,1.75,1.75V154.59z"/>
</svg>
